<svg xmlns="http://www.w3.org/2000/svg" viewBox="0 0 1440 900" preserveAspectRatio="xMidYMid slice" role="img" aria-label="Yumuşak degrade arka plan">
  <defs>
    <linearGradient id="bg" x1="0" y1="0" x2="1" y2="1">
      <stop offset="0%" stop-color="#fff1f5"/>
      <stop offset="50%" stop-color="#fecdd8"/>
      <stop offset="100%" stop-color="#fda4bf"/>
    </linearGradient>
    <radialGradient id="glow" cx="75%" cy="25%" r="60%">
      <stop offset="0%" stop-color="#ffffff" stop-opacity="0.9"/>
      <stop offset="100%" stop-color="#ffffff" stop-opacity="0"/>
    </radialGradient>
    <linearGradient id="petal" x1="0" y1="0" x2="1" y2="1">
      <stop offset="0%" stop-color="#fb719b"/>
      <stop offset="100%" stop-color="#f43f6b"/>
    </linearGradient>
  </defs>
  <rect width="1440" height="900" fill="url(#bg)"/>
  <circle cx="1080" cy="180" r="340" fill="url(#glow)"/>
  <g opacity="0.18">
    <path d="M1200 300c160 100 240 220 160 320s-340 130-540 60-360-230-260-330 320-150 480-50z" fill="url(#petal)"/>
    <path d="M260 620c110-90 260-120 370-40s110 220-20 280-350-10-420-120 0-110 70-120z" fill="url(#petal)"/>
  </g>
  <g opacity="0.08">
    <circle cx="240" cy="220" r="180" fill="#be123c"/>
    <circle cx="1320" cy="640" r="160" fill="#f43f6b"/>
  </g>
</svg>

